HIERARCHY
ROOT Hips
{
	OFFSET 0.000000 0.000000 0.000000
	CHANNELS 6 Xposition Yposition Zposition Xrotation Yrotation Zrotation
	JOINT LeftUpLeg_virtual
	{
		OFFSET 0.000000 0.000000 0.000000
		CHANNELS 3 Xrotation Yrotation Zrotation
		JOINT LeftUpLeg
		{
			OFFSET 10.205400 -3.823500 0.155100
			CHANNELS 3 Xrotation Yrotation Zrotation
			JOINT LeftLeg
			{
				OFFSET 0.708757 -12.982077 0.567790
				CHANNELS 3 Xrotation Yrotation Zrotation
				JOINT LeftFoot
				{
					OFFSET -0.708756 -10.717838 -2.184338
					CHANNELS 3 Xrotation Yrotation Zrotation
					JOINT LeftToeBase
					{
						OFFSET 0.108149 -7.191104 7.560241
						CHANNELS 3 Xrotation Yrotation Zrotation
						JOINT LeftToe_End
						{
							OFFSET 0.070230 0.081724 4.490308
							CHANNELS 3 Xrotation Yrotation Zrotation
							End Site
							{
								OFFSET 0 0 0
							}
						}
					}
				}
			}
		}
	}
	JOINT RightUpLeg_virtual
	{
		OFFSET 0.000000 0.000000 0.000000
		CHANNELS 3 Xrotation Yrotation Zrotation
		JOINT RightUpLeg
		{
			OFFSET -10.205400 -3.823500 0.005500
			CHANNELS 3 Xrotation Yrotation Zrotation
			JOINT RightLeg
			{
				OFFSET -0.708756 -12.982134 0.610632
				CHANNELS 3 Xrotation Yrotation Zrotation
				JOINT RightFoot
				{
					OFFSET 0.708754 -10.717769 -1.945823
					CHANNELS 3 Xrotation Yrotation Zrotation
					JOINT RightToeBase
					{
						OFFSET -0.108140 -7.191069 7.372968
						CHANNELS 3 Xrotation Yrotation Zrotation
						JOINT RightToe_End
						{
							OFFSET -0.070227 0.081735 4.479403
							CHANNELS 3 Xrotation Yrotation Zrotation
							End Site
							{
								OFFSET 0 0 0
							}
						}
					}
				}
			}
		}
	}
	JOINT Spine_virtual
	{
		OFFSET 0.000000 0.000000 0.000000
		CHANNELS 3 Xrotation Yrotation Zrotation
		JOINT Spine
		{
			OFFSET 0.000000 6.876099 0.125700
			CHANNELS 3 Xrotation Yrotation Zrotation
			JOINT Spine1
			{
				OFFSET 0.000000 5.730043 0.104720
				CHANNELS 3 Xrotation Yrotation Zrotation
				JOINT Spine1_split
				{
					OFFSET 0.000000 5.730043 0.104720
					CHANNELS 3 Xrotation Yrotation Zrotation
					JOINT Spine2
					{
						OFFSET 0.000000 5.730043 0.104720
						CHANNELS 3 Xrotation Yrotation Zrotation
						JOINT Neck_virtual
						{
							OFFSET 0.000000 0.000000 0.000000
							CHANNELS 3 Xrotation Yrotation Zrotation
							JOINT Neck
							{
								OFFSET 0.000000 10.314075 0.188496
								CHANNELS 3 Xrotation Yrotation Zrotation
								JOINT Head
								{
									OFFSET 0.000000 7.643700 -2.377400
									CHANNELS 3 Xrotation Yrotation Zrotation
									JOINT HeadTop_End
									{
										OFFSET 0.000000 43.788605 -13.619600
										CHANNELS 3 Xrotation Yrotation Zrotation
										End Site
										{
											OFFSET 0 0 0
										}
									}
								}
							}
						}
						JOINT LeftShoulder_virtual
						{
							OFFSET 0.000000 0.000000 0.000000
							CHANNELS 3 Xrotation Yrotation Zrotation
							JOINT LeftShoulder
							{
								OFFSET 2.196100 4.412489 0.087492
								CHANNELS 3 Xrotation Yrotation Zrotation
								JOINT LeftShoulder_split
								{
									OFFSET 2.196100 4.412489 0.087492
									CHANNELS 3 Xrotation Yrotation Zrotation
									JOINT LeftArm
									{
										OFFSET 8.771219 -2.981674 -0.026999
										CHANNELS 3 Xrotation Yrotation Zrotation
										JOINT LeftForeArm
										{
											OFFSET 8.512804 0.000000 -0.000000
											CHANNELS 3 Xrotation Yrotation Zrotation
											JOINT LeftHand
											{
												OFFSET 18.484802 0.000000 -0.000000
												CHANNELS 3 Xrotation Yrotation Zrotation
												End Site
												{
													OFFSET 0 0 0
												}
											}
										}
									}
								}
							}
						}
						JOINT RightShoulder_virtual
						{
							OFFSET 0.000000 0.000000 0.000000
							CHANNELS 3 Xrotation Yrotation Zrotation
							JOINT RightShoulder
							{
								OFFSET -2.196100 4.412496 0.070690
								CHANNELS 3 Xrotation Yrotation Zrotation
								JOINT RightShoulder_split
								{
									OFFSET -2.196100 4.412496 0.070690
									CHANNELS 3 Xrotation Yrotation Zrotation
									JOINT RightArm
									{
										OFFSET -8.771282 -2.981682 -0.094208
										CHANNELS 3 Xrotation Yrotation Zrotation
										JOINT RightForeArm
										{
											OFFSET -8.494598 0.000000 0.000000
											CHANNELS 3 Xrotation Yrotation Zrotation
											JOINT RightHand
											{
												OFFSET -18.483803 0.000000 0.000001
												CHANNELS 3 Xrotation Yrotation Zrotation
												End Site
												{
													OFFSET 0 0 0
												}
											}
										}
									}
								}
							}
						}
					}
				}
			}
		}
	}
}
MOTION
Frames: 4
Frame Time: 0.03333333
-0.174951 30.068552 -0.017910 0.000000 0.000000 0.000000 5.564457 -62.770545 6.858814 -31.645612 6.243435 29.328224 41.966530 -8.214784 -10.011862 -17.567322 1.320586 -11.077633 0.331734 0.892656 0.437814 0.000000 0.000000 0.000000 2.417339 -61.145151 5.413162 -27.024448 -7.097663 -31.767603 47.901479 2.729417 -7.416954 -23.320938 -0.320712 19.585001 1.784592 0.720613 -1.668175 0.000000 0.000000 0.000000 6.107739 -63.750732 6.830754 8.785188 0.817483 -0.061476 10.259408 1.138174 -4.992805 0.506660 -1.310172 1.073218 0.000000 0.000000 0.000000 10.819210 0.536599 -3.977025 -17.499245 21.165725 11.259242 7.699468 34.348605 -7.294964 0.000000 0.000000 0.000000 11.169302 1.075770 -4.052747 -4.661639 -14.097953 0.154609 5.182312 -2.244173 -6.579179 -14.268250 9.198634 -25.388845 7.079753 -52.073383 3.312156 0.000000 0.000000 0.000000 11.278089 0.233660 -4.899273 -6.059962 15.252273 9.252905 -0.028719 4.339007 2.194338 -46.392663 -15.543586 32.215280 -146.963104 64.498904 147.860454 0.000000 0.000000 0.000000 
-0.283394 30.059923 0.147963 0.000000 0.000000 0.000000 5.286311 -62.899991 6.753813 -32.091903 6.148087 29.534441 42.695301 -8.037825 -9.885381 -17.215031 1.352041 -11.099664 0.610201 0.931221 0.361693 0.000000 0.000000 0.000000 2.731436 -61.251081 5.586282 -27.144463 -6.628089 -31.680333 47.416003 2.871985 -7.476314 -22.344187 -0.173719 21.068924 0.269973 0.649659 -1.740385 0.000000 0.000000 0.000000 5.987298 -64.053787 6.983281 8.908492 0.701865 -0.088351 10.038215 1.001311 -4.965185 -0.050527 -1.624020 0.970419 0.000000 0.000000 0.000000 10.250232 0.475071 -4.087867 -17.720311 20.073123 11.596006 7.672736 33.352060 -6.996813 0.000000 0.000000 0.000000 10.922822 0.922599 -4.042936 -4.782167 -13.803070 -0.248825 5.044864 -1.650693 -6.921425 -12.941799 10.190811 -25.119021 7.188083 -52.186668 3.078736 0.000000 0.000000 0.000000 10.961176 0.141676 -4.928551 -6.056123 14.087803 9.802885 0.221209 4.615749 3.042578 -43.260250 -20.462313 32.756467 -143.568268 64.521457 143.868974 0.000000 0.000000 0.000000 
-0.328043 29.980530 0.265041 0.000000 0.000000 0.000000 5.214417 -62.291141 6.941268 -33.149469 5.540737 29.312040 44.318809 -7.810180 -9.609058 -17.064830 1.231365 -11.063817 1.054841 0.995150 0.014470 0.000000 0.000000 0.000000 3.265609 -60.664128 6.094841 -27.404426 -5.950839 -31.849438 47.675332 2.603197 -7.777554 -21.401247 0.108134 22.577446 -1.237499 0.591792 -1.542636 0.000000 0.000000 0.000000 6.271905 -63.659897 7.641388 9.173322 0.369399 -0.342864 9.570254 0.780832 -5.012520 -0.173626 -2.457914 0.790610 0.000000 0.000000 0.000000 9.441103 0.357237 -4.219227 -18.182884 18.332930 11.031173 5.964185 30.610053 -5.314979 0.000000 0.000000 0.000000 10.339697 0.673731 -4.113116 -4.909130 -13.227309 -1.149507 4.451293 -1.139438 -6.854744 -11.485939 11.544834 -24.685106 5.512793 -53.326429 1.164884 0.000000 0.000000 0.000000 10.277780 -0.000981 -4.949926 -5.819498 12.732787 10.381963 -0.411357 5.337740 4.129755 -39.638142 -25.921599 31.822726 -133.934641 60.919748 133.699614 0.000000 0.000000 0.000000 
-0.317194 29.809664 0.354872 0.000000 0.000000 0.000000 5.338676 -61.112093 7.405459 -34.784893 4.454434 28.547612 46.804855 -7.556213 -9.192182 -17.217923 0.943365 -10.983719 1.302027 1.049432 -0.386792 0.000000 0.000000 0.000000 3.920733 -59.439899 6.899377 -27.734248 -5.039659 -32.316808 48.628853 1.814978 -8.404883 -21.375637 0.286093 23.646400 -1.945187 0.574572 -1.177299 0.000000 0.000000 0.000000 6.811911 -62.489585 8.661805 9.544371 -0.085884 -0.740369 8.957762 0.549233 -5.089369 0.154319 -3.068747 0.672882 0.000000 0.000000 0.000000 8.527507 0.250821 -4.347231 -18.915620 16.002228 9.710586 3.039764 26.260937 -2.911573 0.000000 0.000000 0.000000 9.513183 0.413566 -4.213442 -5.025462 -12.354840 -2.394151 3.696970 -1.057337 -6.375916 -10.216342 12.927444 -24.155806 2.516068 -55.251538 -2.014418 0.000000 0.000000 0.000000 9.289112 -0.156525 -4.957135 -5.367032 11.326934 10.901990 -1.573731 5.894852 5.119728 -36.130700 -30.960424 29.788518 -124.073801 54.073081 123.350471 0.000000 0.000000 0.000000 
